<?xml version="1.0" encoding="UTF-8" standalone="no"?>
<svg
   xmlns:dc="http://purl.org/dc/elements/1.1/"
   xmlns:cc="http://creativecommons.org/ns#"
   xmlns:rdf="http://www.w3.org/1999/02/22-rdf-syntax-ns#"
   xmlns:svg="http://www.w3.org/2000/svg"
   xmlns="http://www.w3.org/2000/svg"
   width="127.22761mm"
   height="122.38517mm"
   viewBox="0 0 450.80648 433.64824"
   id="svg2"
   version="1.1">
  <defs
     id="defs4" />
  <metadata
     id="metadata7">
    <rdf:RDF>
      <cc:Work
         rdf:about="">
        <dc:format>image/svg+xml</dc:format>
        <dc:type
           rdf:resource="http://purl.org/dc/dcmitype/StillImage" />
        <dc:title></dc:title>
      </cc:Work>
    </rdf:RDF>
  </metadata>
  <g
     style="stroke-width:0.992028;stroke-miterlimit:4;stroke-dasharray:none"
     id="layer1"
     transform="translate(5.6010619,-386.11061)">
    <path
       style="fill:#000000;stroke-width:0.992028;stroke-miterlimit:4;stroke-dasharray:none"
       d="m 193.51774,780.89348 -24.69229,-3.37084 -23.43248,-10.00104 c -18.53778,-7.91196 -24.11669,-10.50924 -26.70799,-12.43399 -1.80153,-1.33813 -11.77923,-9.29617 -22.172673,-17.68453 L 77.615145,722.1515 62.962133,701.3864 48.30912,680.62131 l -7.992708,-23.07633 -7.992704,-23.07631 -1.245852,-23.93641 -1.245847,-23.9364 5.089278,-22.46942 5.089278,-22.46942 10.739506,-20.2507 10.739496,-20.2507 15.621654,-16.96844 15.621654,-16.96844 19.012105,-12.49148 19.0121,-12.49147 21.55381,-7.74737 21.5538,-7.74737 22.42463,-2.59868 22.42463,-2.59869 22.58783,2.52399 22.58784,2.52399 21.48836,7.59518 21.48836,7.59519 18.41042,11.88993 c 10.12574,6.53947 19.00145,12.3642 19.72382,12.94385 0.72236,0.57965 8.09225,8.27086 16.37754,17.09157 l 15.06414,16.03765 11.20068,20.37854 11.20067,20.37853 5.46437,22.79492 5.46438,22.79492 -0.92228,23.55571 -0.92227,23.55572 -7.60943,23.05728 -7.60943,23.05728 -14.15175,20.6609 c -7.78345,11.3635 -14.95832,21.37093 -15.94416,22.23875 -5.12935,4.51533 -37.9262,31.27671 -40.09068,32.71295 -1.38579,0.91955 -13.17762,6.32335 -26.20406,12.00843 l -23.68444,10.33651 -25.38287,3.55534 c -13.96058,1.95544 -26.20594,3.52794 -27.21192,3.49443 -1.00597,-0.0335 -12.94057,-1.57779 -26.52133,-3.43176 z m 24.18837,0.97305 c 0.17129,-0.27715 -0.0421,-0.50392 -0.47419,-0.50392 -0.43209,0 -0.78563,0.22677 -0.78563,0.50392 0,0.27716 0.21339,0.50393 0.47419,0.50393 0.2608,0 0.61433,-0.22677 0.78563,-0.50393 z m 4.14688,0.19947 c -0.16745,-0.16745 -0.6021,-0.18535 -0.96586,-0.0398 -0.402,0.16087 -0.28259,0.28028 0.30445,0.30445 0.53122,0.0219 0.82885,-0.0972 0.66141,-0.26466 z m 3.9159,-0.19947 c 0.1713,-0.27715 -0.0421,-0.50392 -0.47418,-0.50392 -0.43209,0 -0.78563,0.22677 -0.78563,0.50392 0,0.27716 0.21339,0.50393 0.47419,0.50393 0.2608,0 0.61433,-0.22677 0.78562,-0.50393 z m -11.84222,-0.50392 c 0,-0.27716 -0.22676,-0.50393 -0.50392,-0.50393 -0.27716,0 -0.50393,0.22677 -0.50393,0.50393 0,0.27716 0.22677,0.50392 0.50393,0.50392 0.27716,0 0.50392,-0.22676 0.50392,-0.50392 z m 15.36969,0 c 0.1713,-0.27716 -0.0555,-0.50393 -0.50392,-0.50393 -0.44845,0 -0.67522,0.22677 -0.50392,0.50393 0.17129,0.27716 0.39806,0.50392 0.50392,0.50392 0.10586,0 0.33263,-0.22676 0.50392,-0.50392 z m -19.14912,-0.50393 c 0.1713,-0.27715 -0.0421,-0.50392 -0.47418,-0.50392 -0.4321,0 -0.78563,0.22677 -0.78563,0.50392 0,0.27716 0.21338,0.50393 0.47418,0.50393 0.2608,0 0.61434,-0.22677 0.78563,-0.50393 z m 22.67659,0 c 0.1713,-0.27715 -0.0555,-0.50392 -0.50392,-0.50392 -0.44845,0 -0.67522,0.22677 -0.50392,0.50392 0.17129,0.27716 0.39806,0.50393 0.50392,0.50393 0.10586,0 0.33263,-0.22677 0.50392,-0.50393 z m -26.45602,-0.50392 c 0,-0.27716 -0.34015,-0.50392 -0.75589,-0.50392 -0.41574,0 -0.75588,0.22676 -0.75588,0.50392 0,0.27716 0.34014,0.50392 0.75588,0.50392 0.41574,0 0.75589,-0.22676 0.75589,-0.50392 z m 42.04499,-3.06598 25.73283,-3.5699 23.92481,-10.414 23.92483,-10.414 20.16855,-16.56769 20.16856,-16.56768 14.08105,-20.47076 14.08105,-20.47074 7.63298,-23.18052 7.63298,-23.18052 0.85265,-23.23458 0.85266,-23.23459 -5.36642,-22.37056 -5.36641,-22.37057 -10.91714,-19.98256 -10.91715,-19.98257 -15.53799,-16.55195 -15.538,-16.55194 -18.96489,-12.28492 -18.96489,-12.28492 -21.18691,-7.49095 -21.1869,-7.49095 -22.40255,-2.50831 -22.40255,-2.50832 -22.17267,2.56185 -22.17267,2.56185 -21.16482,7.58396 -21.16482,7.58395 -18.8671,12.39034 -18.867101,12.39034 -15.439139,16.74586 -15.43914,16.74585 -10.621886,20.04062 -10.621894,20.04062 -5.056598,22.42463 -5.056594,22.42463 1.259519,23.5526 1.259519,23.5526 7.925187,22.83979 7.925187,22.83979 14.343996,20.33416 14.343992,20.33416 20.332935,16.42097 20.332927,16.42096 24.01241,10.27592 24.01241,10.27592 25.19621,3.40215 c 13.85792,1.87119 26.20196,3.4264 27.43119,3.45602 1.22923,0.0296 13.81474,-1.55259 27.9678,-3.51604 z m -66.48532,-53.04497 -19.14913,-5.15951 -16.88146,-9.79624 c -9.28481,-5.38793 -17.50507,-10.47419 -18.26725,-11.30279 -1.05403,-1.14588 -1.3858,-1.30063 -1.3858,-0.64639 0,1.25211 -2.72144,6.67075 -4.28141,8.52467 -1.99148,2.36673 -5.36825,4.79038 -8.40009,6.02909 -2.0547,0.83948 -3.75697,1.10317 -7.22351,1.11894 -4.08441,0.0186 -4.86097,-0.13752 -7.810826,-1.57018 -5.026676,-2.44132 -7.713514,-5.35352 -9.601524,-10.40688 -1.568115,-4.19713 -1.231881,-10.43381 0.776146,-14.39646 2.829958,-5.58465 6.517824,-8.87882 12.138804,-10.84295 3.12215,-1.09097 3.18987,-1.15144 2.24613,-2.00552 -0.53521,-0.48435 -5.03864,-8.39587 -10.007646,-17.58116 l -9.034538,-16.70052 -3.833286,-17.38539 -3.833287,-17.38538 1.047561,-17.38539 1.047566,-17.38539 5.554101,-16.12558 c 3.054748,-8.86907 5.79206,-16.57911 6.082912,-17.13343 0.290846,-0.55431 4.681814,-7.13052 9.757697,-14.6138 l 9.22889,-13.60596 12.98642,-11.44937 12.98642,-11.44939 15.72309,-8.08281 15.72309,-8.08281 16.63744,-4.02627 16.63743,-4.02627 18.2232,0 18.2232,0 16.33171,3.7876 16.33171,3.7876 15.72815,7.85365 c 8.65049,4.31951 16.23748,8.32292 16.86,8.89648 1.32348,1.2194 1.20276,1.31465 2.39059,-1.88651 1.16138,-3.1299 4.63347,-6.89856 7.67122,-8.32647 6.98765,-3.28459 15.13004,-2.09121 21.00285,3.07826 9.10707,8.01636 6.64749,21.31249 -4.7608,25.73615 l -2.96519,1.14978 1.44044,1.52019 c 0.79224,0.83611 5.73311,7.64287 10.97971,15.12615 l 9.53928,13.60595 5.94492,16.26253 5.94491,16.26252 1.40635,17.50041 1.40635,17.5004 -3.51555,17.54759 -3.51554,17.54759 -8.18124,15.71142 c -4.49968,8.64128 -8.31565,16.06637 -8.47994,16.50019 -0.16428,0.43384 -6.03372,6.85312 -13.04318,14.26507 l -12.74447,13.47629 -16.83145,10.1039 -16.83145,10.10391 -18.72636,5.1805 -18.72637,5.18049 -20.40893,0.2805 -20.40894,0.28051 z m 29.58351,3.83213 c -2.02153,-0.0959 -5.19625,-0.0952 -7.05494,0.002 -1.8587,0.0967 -0.20472,0.17514 3.67549,0.17435 3.88022,-10e-4 5.40097,-0.0799 3.37945,-0.17578 z m 48.2728,-6.28974 18.39323,-5.04972 16.5132,-9.83286 16.51319,-9.83285 10.95069,-11.56487 10.95067,-11.56486 7.83551,-14.99325 7.8355,-14.99324 3.4185,-16.91625 3.41849,-16.91624 -1.30586,-16.72848 -1.30586,-16.72848 -5.64496,-15.64486 -5.64496,-15.64486 -9.63454,-13.76854 c -5.299,-7.5727 -10.24126,-14.24579 -10.98281,-14.8291 -0.78771,-0.6196 -2.60249,-1.23782 -4.36497,-1.48695 -3.83547,-0.54214 -7.84819,-2.37583 -10.55956,-4.82539 -2.31589,-2.09225 -5.06367,-6.99007 -5.06367,-9.02578 0,-2.61182 -2.71981,-4.45221 -18.14128,-12.27556 l -14.86576,-7.54144 -16.54607,-3.82692 -16.54606,-3.82693 -16.20902,-0.007 -16.20901,-0.007 -16.78366,4.09144 -16.78365,4.09142 -14.45965,7.46382 -14.45966,7.46382 -12.51601,10.98169 -12.51602,10.98168 -9.30869,13.76389 -9.308688,13.76389 -5.423171,15.98864 -5.423177,15.98865 -0.879748,16.88146 -0.879757,16.88147 3.737248,16.6295 3.737247,16.6295 7.419035,13.60596 c 4.080471,7.48327 7.750181,13.97195 8.154901,14.41929 0.43762,0.48368 1.90376,0.92514 3.61736,1.08918 5.79269,0.55452 10.35751,3.71614 14.71498,10.19167 2.66222,3.95625 4.54404,8.52412 4.54404,11.03003 0,1.66128 0.0838,1.7184 16.75549,11.41865 l 16.75548,9.74902 19.14912,5.15373 19.14913,5.15373 19.90501,-0.26517 19.90501,-0.26518 18.39324,-5.04972 z m -145.33914,-12.275 c 3.3779,-1.598 6.88498,-5.13001 8.62483,-8.68614 1.75779,-3.59281 2.22265,-10.05045 0.95207,-13.22593 -1.09611,-2.73946 -3.86204,-6.32061 -6.21938,-8.05249 -6.70315,-4.92462 -16.78773,-3.70404 -23.024319,2.78672 -6.740997,7.01574 -6.829306,17.78822 -0.199646,24.35226 5.101929,5.05143 12.836125,6.15146 19.866445,2.82558 z m -9.61759,-5.71529 c -4.63765,-1.14414 -7.371611,-4.58015 -7.414182,-9.31805 -0.06185,-6.8829 7.125842,-12.06306 13.408682,-9.66362 5.14198,1.96374 7.59217,6.57769 6.14203,11.56604 -1.47002,5.05667 -7.28827,8.61172 -12.13653,7.41563 z m 7.49495,-3.97234 c 1.77096,-1.65923 2.8355,-4.03116 2.8355,-6.31787 0,-2.25983 -0.96173,-2.96576 -4.04044,-2.96576 -4.60188,0 -8.05375,3.45778 -8.05375,8.06755 0,1.1021 0.28346,2.23662 0.62991,2.52116 1.74945,1.43684 6.46318,0.72389 8.62878,-1.30508 z m -10.09312,-5.99191 c 1.27092,-2.45767 4.03006,-4.53251 6.82425,-5.13176 1.39799,-0.29983 2.92705,-0.39729 3.39791,-0.21661 1.41355,0.54244 0.30669,-0.76275 -1.39165,-1.64099 -1.68522,-0.87146 -7.97171,-0.84375 -7.82709,0.0345 0.0456,0.27716 -0.25717,0.50827 -0.67291,0.51357 -0.41574,0.005 -0.75905,0.1187 -0.76291,0.25196 -0.004,0.13328 -0.53394,1.0949 -1.17796,2.13694 -1.126651,1.82297 -2.353007,7.64968 -1.498937,7.12184 0.375602,-0.23213 0.646657,0.9267 0.463449,1.98135 -0.03967,0.22847 0.160229,0.27177 0.444248,0.0962 0.28403,-0.17554 0.54308,-0.0223 0.57568,0.34048 0.0326,0.36281 0.23561,-0.3828 0.45113,-1.65691 0.21552,-1.27411 0.74418,-2.99789 1.17479,-3.83061 z m -0.3436,4.25746 c -0.13979,-0.34646 -0.25418,-0.063 -0.25418,0.6299 0,0.69289 0.11439,0.97636 0.25418,0.62991 0.13979,-0.34645 0.13979,-0.91337 0,-1.25981 z m 6.84718,-12.82777 c -0.6236,-0.12011 -1.64405,-0.12011 -2.26765,0 -0.62361,0.12011 -0.11339,0.21839 1.13382,0.21839 1.24721,0 1.75744,-0.0983 1.13383,-0.21839 z m 13.04033,19.63075 c 0.62682,-0.79926 0.609,-0.81708 -0.19026,-0.19027 -0.48503,0.38039 -0.88187,0.77723 -0.88187,0.88187 0,0.41475 0.41382,0.14781 1.07213,-0.6916 z M 88.79689,693.80576 c -0.126753,-0.48503 -0.230461,-0.0882 -0.230461,0.88187 0,0.97005 0.103708,1.36689 0.230461,0.88187 0.126747,-0.48503 0.126747,-1.27871 0,-1.76374 z m 39.81186,0.51351 c -0.12776,-0.4903 -0.2407,-0.21115 -0.25097,0.62032 -0.0103,0.83148 0.0943,1.23263 0.23231,0.89146 0.13803,-0.34118 0.14643,-1.02147 0.0187,-1.51178 z m -1.31072,-1.18659 -0.48638,-1.21664 -0.0319,1.3018 c -0.0176,0.716 0.13341,1.46716 0.33551,1.66925 0.59839,0.5984 0.70694,-0.44333 0.18281,-1.75441 z m 189.17724,0.0432 c 1.08255,-1.10863 1.8549,-2.0157 1.71632,-2.0157 -0.13858,0 -1.13769,0.90707 -2.22024,2.0157 -1.08255,1.10864 -1.8549,2.0157 -1.71632,2.0157 0.13858,0 1.13769,-0.90706 2.22024,-2.0157 z m -190.08542,-1.51177 c 0.14496,-0.55432 0.058,-1.00785 -0.19319,-1.00785 -0.25121,0 -0.45674,0.45353 -0.45674,1.00785 0,0.55432 0.0869,1.00785 0.19319,1.00785 0.10625,0 0.31179,-0.45353 0.45674,-1.00785 z m 0.35792,-2.74184 c 0,-0.12223 -0.22677,-0.36237 -0.50393,-0.53367 -0.27715,-0.17129 -0.50392,-0.0713 -0.50392,0.22222 0,0.29352 0.22677,0.53367 0.50392,0.53367 0.27716,0 0.50393,-0.1 0.50393,-0.22222 z m 198.54618,-5.06899 c 0.94021,-0.97005 1.59609,-1.76373 1.45751,-1.76373 -0.13858,0 -1.02122,0.79368 -1.96144,1.76373 -0.94021,0.97006 -1.59609,1.76374 -1.45751,1.76374 0.13858,0 1.02122,-0.79368 1.96144,-1.76374 z m 7.81082,-8.31475 c 0.50165,-0.55432 0.79871,-1.00785 0.66014,-1.00785 -0.13858,0 -0.66241,0.45353 -1.16406,1.00785 -0.50165,0.55432 -0.79871,1.00785 -0.66013,1.00785 0.13858,0 0.6624,-0.45353 1.16405,-1.00785 z M 105.95039,675.738 c -0.16745,-0.16745 -0.60209,-0.18535 -0.96585,-0.0398 -0.402,0.16087 -0.28259,0.28028 0.30445,0.30445 0.53122,0.0219 0.82885,-0.0972 0.6614,-0.26467 z m 2.78208,-0.53321 c -0.34644,-0.13979 -0.91336,-0.13979 -1.25981,0 -0.34644,0.1398 -0.063,0.25418 0.62991,0.25418 0.69289,0 0.97635,-0.11438 0.6299,-0.25418 z m 227.89977,-3.69765 c 0.88038,-0.97281 0.88018,-1.00785 -0.006,-1.00785 -0.50489,0 -0.76876,0.14921 -0.58639,0.33158 0.18236,0.18237 0.079,0.6359 -0.22968,1.00785 -0.88618,1.06778 -0.19046,0.78712 0.82196,-0.33158 z m 1.76374,-2.21375 c 0,-0.10893 -0.35193,-0.33309 -0.78206,-0.49815 -0.44845,-0.17209 -0.65073,-0.0876 -0.47418,0.19805 0.29593,0.47883 1.25624,0.70823 1.25624,0.3001 z m 0.50392,-1.00785 c 0,-0.10893 -0.35192,-0.33309 -0.78205,-0.49815 -0.44846,-0.17209 -0.65073,-0.0876 -0.47419,0.19805 0.29594,0.47883 1.25624,0.70823 1.25624,0.3001 z m 0.45509,-1.50684 c 0.44496,-0.53615 0.40698,-0.76284 -0.1646,-0.98218 -0.52605,-0.20186 -0.65198,-0.0477 -0.43114,0.52774 0.22451,0.58509 0.12489,0.69729 -0.35549,0.4004 -0.44408,-0.27446 -0.5471,-0.2178 -0.30786,0.1693 0.45733,0.73997 0.55687,0.73086 1.25909,-0.11526 z m 1.05669,-1.5167 c 0,-0.10893 -0.35193,-0.33309 -0.78206,-0.49816 -0.44845,-0.17208 -0.65073,-0.0876 -0.47419,0.19805 0.29594,0.47884 1.25625,0.70824 1.25625,0.30011 z m 1.18808,-2.63593 c 1.18733,-2.48987 0.81592,-2.59958 -0.52333,-0.1546 -0.59672,1.0894 -0.91902,1.98073 -0.71622,1.98073 0.2028,0 0.76059,-0.82176 1.23955,-1.82613 z m 2.33939,-3.91509 c 0,-0.10893 -0.35193,-0.33309 -0.78206,-0.49815 -0.44845,-0.17209 -0.65073,-0.0876 -0.47419,0.19805 0.29594,0.47883 1.25625,0.70823 1.25625,0.3001 z m 0.50392,-1.00785 c 0,-0.10893 -0.35192,-0.33309 -0.78206,-0.49815 -0.44845,-0.17209 -0.65072,-0.0876 -0.47418,0.19805 0.29594,0.47883 1.25624,0.70823 1.25624,0.3001 z m 0.50393,-1.00785 c 0,-0.10893 -0.35193,-0.33309 -0.78206,-0.49815 -0.44846,-0.17209 -0.65073,-0.0876 -0.47419,0.19805 0.29594,0.47883 1.25625,0.70824 1.25625,0.3001 z m 0.50392,-1.00785 c 0,-0.10892 -0.35193,-0.33309 -0.78206,-0.49815 -0.44845,-0.17208 -0.65072,-0.0876 -0.47418,0.19805 0.29593,0.47883 1.25624,0.70824 1.25624,0.3001 z m 0.67016,-1.52398 c 0.15072,-0.39279 -0.0402,-0.83479 -0.42435,-0.98218 -0.47983,-0.18413 -0.60078,-0.0136 -0.38647,0.54488 0.22452,0.58509 0.12489,0.6973 -0.35549,0.4004 -0.44407,-0.27445 -0.54709,-0.21779 -0.30786,0.1693 0.48866,0.79066 1.14248,0.73195 1.47417,-0.1324 z m 1.99645,-4.08426 c 1.84658,-3.76511 1.69433,-4.24877 -0.18884,-0.59988 -0.92642,1.79505 -1.72207,2.78235 -2.06932,2.56774 -0.34325,-0.21215 -0.42338,-0.12088 -0.20461,0.2331 0.63512,1.02765 1.06985,0.63915 2.46277,-2.20096 z m 2.37263,-3.96632 c 0,-0.10893 -0.35192,-0.33309 -0.78206,-0.49815 -0.44845,-0.17209 -0.65072,-0.0876 -0.47418,0.19805 0.29594,0.47883 1.25624,0.70823 1.25624,0.3001 z m 0.50393,-1.00785 c 0,-0.10893 -0.35193,-0.33309 -0.78206,-0.49815 -0.44845,-0.17209 -0.65073,-0.0876 -0.47418,0.19805 0.29593,0.47883 1.25624,0.70824 1.25624,0.3001 z M 89.629749,644.06889 c 0.186917,-0.4871 0.03806,-0.6373 -0.447108,-0.45113 -0.400033,0.15351 -0.601871,0.48211 -0.448528,0.73022 0.386224,0.62493 0.570808,0.5674 0.895636,-0.27909 z m -0.676307,-1.28548 c 0,-0.27716 -0.1,-0.50392 -0.222221,-0.50392 -0.122221,0 -0.362368,0.22676 -0.533665,0.50392 -0.171291,0.27716 -0.0713,0.50392 0.222221,0.50392 0.293518,0 0.533665,-0.22676 0.533665,-0.50392 z m 262.695078,-0.33463 c -0.21489,-0.56002 -0.12787,-0.71871 0.26201,-0.47775 0.39342,0.24315 0.47558,0.0788 0.25196,-0.50392 -0.22362,-0.58275 -0.14146,-0.74708 0.25196,-0.50393 0.39342,0.24315 0.47559,0.0788 0.25197,-0.50392 -0.22363,-0.58275 -0.14147,-0.74707 0.25196,-0.50393 0.39341,0.24315 0.47558,0.0788 0.25196,-0.50392 -0.22362,-0.58275 -0.14146,-0.74707 0.25196,-0.50393 0.39342,0.24315 0.47558,0.0788 0.25197,-0.50392 -0.19719,-0.51385 -0.12961,-0.73974 0.16655,-0.55671 0.30409,0.18794 0.4093,-0.29888 0.2699,-1.24873 -0.13402,-0.91309 -0.0298,-1.43397 0.25196,-1.25981 0.2818,0.17417 0.38597,-0.34671 0.25196,-1.25981 -0.13401,-0.91309 -0.0298,-1.43397 0.25196,-1.25981 0.2818,0.17416 0.38598,-0.34671 0.25196,-1.25981 -0.13401,-0.91309 -0.0298,-1.43397 0.25197,-1.25981 0.2818,0.17416 0.38597,-0.34672 0.25196,-1.25981 -0.13402,-0.9131 -0.0298,-1.43397 0.25196,-1.25981 0.2818,0.17416 0.38598,-0.34672 0.25196,-1.25981 -0.13401,-0.9131 -0.0298,-1.43397 0.25196,-1.25981 0.2818,0.17416 0.38598,-0.34672 0.25197,-1.25981 -0.13402,-0.9131 -0.0298,-1.43398 0.25196,-1.25981 0.2818,0.17416 0.38598,-0.34672 0.25196,-1.25982 -0.13401,-0.91309 -0.0298,-1.43397 0.25196,-1.25981 0.2818,0.17417 0.38598,-0.34671 0.25197,-1.25981 -0.13402,-0.91309 -0.0298,-1.43397 0.25196,-1.25981 0.2818,0.17416 0.38597,-0.34671 0.25196,-1.25981 -0.13955,-0.95074 -0.0344,-1.43673 0.27035,-1.24845 0.30196,0.18663 0.39929,-0.21244 0.24659,-1.01116 -0.1485,-0.77687 -0.0525,-1.19599 0.23358,-1.01921 0.28847,0.17828 0.39299,-0.33213 0.25733,-1.2565 -0.13402,-0.91309 -0.0298,-1.43397 0.25196,-1.25981 0.2818,0.17416 0.38598,-0.34671 0.25196,-1.25981 -0.13401,-0.91309 -0.0298,-1.43397 0.25196,-1.25981 0.2818,0.17416 0.38598,-0.34672 0.25197,-1.25981 -0.12567,-0.85621 -0.0279,-1.43504 0.21715,-1.28629 0.24611,0.14935 0.45724,-2.01861 0.47154,-4.84168 0.0167,-3.29937 -0.11098,-4.57606 -0.3601,-3.60036 -0.23155,0.90695 -0.3212,-0.40352 -0.22405,-3.27551 0.10553,-3.11995 0.0176,-4.26075 -0.25242,-3.27551 -0.2726,0.99459 -0.35726,-0.0398 -0.24747,-3.02354 0.11091,-3.0141 0.0266,-4.02825 -0.2515,-3.02355 -0.27548,0.99541 -0.36308,-0.12338 -0.25646,-3.27551 0.10488,-3.10048 0.0168,-4.2546 -0.25002,-3.2755 -0.27102,0.99461 -0.35815,-0.0397 -0.25466,-3.02355 0.0881,-2.54136 -0.009,-3.98144 -0.22152,-3.27551 -0.30492,1.0141 -0.40613,0.76837 -0.51888,-1.25981 -0.077,-1.38579 -0.13954,-2.90519 -0.13889,-3.37643 5e-4,-0.47125 -0.22141,-0.71925 -0.49347,-0.55111 -0.29397,0.18169 -0.37928,-0.13541 -0.21029,-0.78164 0.15639,-0.59803 0.0951,-0.97035 -0.1363,-0.82736 -0.56885,0.35157 -1.15429,-1.61233 -0.69984,-2.34764 0.24102,-0.38998 0.14097,-0.44947 -0.29882,-0.17767 -0.49256,0.30442 -0.58865,0.13134 -0.37681,-0.67872 0.15638,-0.59804 0.097,-0.97156 -0.13198,-0.83005 -0.57266,0.35393 -1.66469,-3.11794 -1.21139,-3.85138 0.24439,-0.39543 0.14638,-0.45612 -0.29552,-0.18302 -0.49256,0.30442 -0.58865,0.13134 -0.37681,-0.67872 0.15639,-0.59803 0.097,-0.97156 -0.13198,-0.83004 -0.57266,0.35393 -1.66468,-3.11795 -1.21139,-3.85139 0.24439,-0.39542 0.14638,-0.45612 -0.29552,-0.18302 -0.49256,0.30443 -0.58864,0.13134 -0.37681,-0.67872 0.15639,-0.59803 0.0951,-0.97035 -0.1363,-0.82736 -0.56885,0.35157 -1.15429,-1.61233 -0.69984,-2.34764 0.24102,-0.38998 0.14097,-0.44947 -0.29882,-0.17767 -0.49256,0.30442 -0.58865,0.13134 -0.37681,-0.67872 0.15639,-0.59804 0.097,-0.97156 -0.13198,-0.83005 -0.57266,0.35393 -1.66468,-3.11794 -1.21139,-3.85138 0.24439,-0.39543 0.14638,-0.45612 -0.29552,-0.18302 -0.49256,0.30442 -0.58864,0.13134 -0.37681,-0.67872 0.15639,-0.59803 0.097,-0.97156 -0.13197,-0.83004 -0.57267,0.35393 -1.66469,-3.11795 -1.2114,-3.85139 0.2183,-0.35321 0.14854,-0.45745 -0.17309,-0.25867 -0.58883,0.36392 -2.89208,-2.98658 -2.89315,-4.20864 -3.6e-4,-0.41574 -0.27946,-0.75589 -0.6202,-0.75589 -0.88009,0 -2.27935,-2.15577 -1.85008,-2.85032 0.21494,-0.34779 0.13812,-0.44439 -0.19143,-0.24071 -0.7094,0.43842 -3.81142,-4.02938 -3.33398,-4.80189 0.21118,-0.3417 0.1351,-0.44044 -0.1863,-0.2418 -0.67021,0.41421 -2.82292,-2.49348 -2.37846,-3.21262 0.1767,-0.28592 0.021,-0.45754 -0.34609,-0.38139 -0.37741,0.0783 -0.66764,-0.2994 -0.66802,-0.86937 -3.6e-4,-0.55432 -0.27946,-1.00785 -0.6202,-1.00785 -0.88009,0 -2.27935,-2.15577 -1.85009,-2.85033 0.21495,-0.34779 0.13812,-0.44439 -0.19142,-0.24071 -0.56011,0.34617 -3.76836,-3.82084 -3.5186,-4.5701 0.0736,-0.22091 -0.0574,-0.43622 -0.29116,-0.47847 -0.76181,-0.13769 -3.32517,-2.83828 -3.07629,-3.24098 0.13324,-0.2156 0.006,-0.5379 -0.28236,-0.71623 -0.28855,-0.17833 -0.48301,-0.13731 -0.43215,0.0912 0.0508,0.22847 -0.0484,0.75555 -0.22066,1.17128 -0.17223,0.41574 -0.86429,2.24918 -1.53792,4.07433 l -1.22478,3.31842 1.5839,1.26415 c 0.87114,0.69528 5.95259,7.51222 11.2921,15.14876 l 9.70818,13.88462 5.76935,15.91606 5.76935,15.91606 1.31588,17.01702 1.31587,17.01703 -3.27476,16.1103 c -1.80112,8.86066 -3.1654,16.28725 -3.03173,16.50352 0.43868,0.7098 0.66271,0.41115 0.33405,-0.44533 z m -266.536599,-15.53899 -3.287172,-14.6138 0.837347,-16.37754 c 0.538127,-10.52529 1.108134,-17.36793 1.595153,-19.14913 0.416793,-1.52437 2.920305,-9.12103 5.563352,-16.88146 l 4.805551,-14.10988 9.431688,-13.97185 9.43168,-13.97185 12.51831,-11.03372 12.51831,-11.03372 15.14965,-7.84103 15.14966,-7.84104 16.72455,-4.06585 16.72456,-4.06585 16.47649,0 16.47648,0 16.36033,3.80322 16.36034,3.80322 15.1929,7.59827 c 8.35609,4.17905 15.86005,8.15874 16.67546,8.84378 1.71726,1.44268 1.50874,1.71975 3.19525,-4.24559 0.93705,-3.31444 0.95608,-3.68635 0.21911,-4.28336 -0.60592,-0.49086 -0.71273,-0.49681 -0.4286,-0.0239 0.63883,1.06333 -0.44882,0.69843 -1.61351,-0.54132 -0.60516,-0.64416 -0.93506,-1.33644 -0.73311,-1.5384 0.20196,-0.20195 -0.0599,-0.20329 -0.58197,-0.003 -0.65609,0.25176 -0.83777,0.18397 -0.58838,-0.21956 0.24315,-0.39342 0.0788,-0.47558 -0.50392,-0.25197 -0.58275,0.22363 -0.74707,0.14147 -0.50393,-0.25196 0.24315,-0.39341 0.0788,-0.47558 -0.50392,-0.25196 -0.58275,0.22362 -0.74707,0.14146 -0.50393,-0.25196 0.24315,-0.39342 0.0788,-0.47558 -0.50392,-0.25196 -0.58275,0.22362 -0.74707,0.14146 -0.50392,-0.25197 0.24314,-0.39341 0.0788,-0.47558 -0.50393,-0.25196 -0.58275,0.22363 -0.74706,0.14147 -0.50392,-0.25196 0.24314,-0.39342 0.0788,-0.47558 -0.50393,-0.25196 -0.58274,0.22362 -0.74706,0.14146 -0.50392,-0.25197 0.24314,-0.39341 0.0788,-0.47558 -0.50393,-0.25196 -0.58274,0.22363 -0.74706,0.14147 -0.50392,-0.25196 0.24315,-0.39342 0.0788,-0.47558 -0.50392,-0.25196 -0.58275,0.22362 -0.74707,0.14146 -0.50393,-0.25196 0.24315,-0.39342 0.0788,-0.47558 -0.50392,-0.25197 -0.58275,0.22363 -0.74707,0.14147 -0.50393,-0.25196 0.24315,-0.39341 0.0788,-0.47558 -0.50392,-0.25196 -0.58275,0.22362 -0.74707,0.14146 -0.50393,-0.25196 0.24315,-0.39342 0.0788,-0.47558 -0.50392,-0.25196 -0.58275,0.22362 -0.74707,0.14146 -0.50393,-0.25197 0.24315,-0.39341 0.0788,-0.47558 -0.50392,-0.25196 -0.58275,0.22363 -0.74707,0.14147 -0.50392,-0.25196 0.24314,-0.39342 0.0788,-0.47558 -0.50393,-0.25196 -0.58274,0.22362 -0.74706,0.14146 -0.50392,-0.25197 0.24314,-0.39341 0.0788,-0.47558 -0.50393,-0.25196 -0.58274,0.22363 -0.74706,0.14147 -0.50392,-0.25196 0.24315,-0.39342 0.0788,-0.47558 -0.50393,-0.25196 -0.58274,0.22362 -0.74706,0.14146 -0.50392,-0.25196 0.24315,-0.39342 0.0788,-0.47559 -0.50392,-0.25197 -0.58275,0.22363 -0.74707,0.14147 -0.50393,-0.25196 0.24315,-0.39341 0.0788,-0.47558 -0.50392,-0.25196 -0.58275,0.22362 -0.74707,0.14146 -0.50393,-0.25196 0.24315,-0.39342 0.0788,-0.47558 -0.50392,-0.25196 -0.58275,0.22362 -0.74707,0.14146 -0.50393,-0.25197 0.24315,-0.39341 0.0788,-0.47558 -0.50392,-0.25196 -0.58275,0.22362 -0.74707,0.14147 -0.50392,-0.25196 0.24314,-0.39342 0.0788,-0.47558 -0.50393,-0.25196 -0.58274,0.22362 -0.74706,0.14146 -0.50392,-0.25197 0.24314,-0.39341 0.0788,-0.47558 -0.50393,-0.25196 -0.58274,0.22363 -0.74706,0.14147 -0.50392,-0.25196 0.24315,-0.39342 0.0788,-0.47558 -0.50393,-0.25196 -0.58274,0.22362 -0.74706,0.14146 -0.50392,-0.25196 0.24315,-0.39342 0.0788,-0.47559 -0.50392,-0.25197 -0.58275,0.22363 -0.74707,0.14147 -0.50393,-0.25196 0.24315,-0.39341 0.0788,-0.47558 -0.50392,-0.25196 -0.58275,0.22362 -0.74707,0.14146 -0.50393,-0.25196 0.24315,-0.39342 0.0788,-0.47558 -0.50392,-0.25197 -0.63312,0.24296 -0.75424,0.15307 -0.45224,-0.33558 0.28768,-0.46547 0.21908,-0.54789 -0.2267,-0.27239 -0.37155,0.22964 -1.82842,-0.16144 -3.47935,-0.93397 -1.67627,-0.78439 -9.52932,-2.87618 -19.16328,-5.10446 l -16.32312,-3.77537 -17.01143,0 -17.01144,0 -16.55395,4.05354 c -9.10468,2.22944 -16.9511,3.95133 -17.43652,3.82643 -0.54156,-0.13936 -0.753,-0.0175 -0.54723,0.31545 0.21413,0.34648 0.0228,0.42264 -0.5294,0.21074 -0.58275,-0.22362 -0.74708,-0.14146 -0.50393,0.25196 0.24315,0.39343 0.0788,0.47559 -0.50392,0.25196 -0.49876,-0.19139 -0.73842,-0.12745 -0.56628,0.15108 0.38817,0.62806 -8.68216,5.18896 -9.41664,4.73503 -0.36457,-0.22533 -0.41592,-0.11323 -0.14725,0.32147 0.302,0.48866 0.18088,0.57854 -0.45224,0.33559 -0.58275,-0.22362 -0.74708,-0.14145 -0.50393,0.25196 0.24315,0.39343 0.0788,0.47559 -0.50392,0.25196 -0.58275,-0.22361 -0.74708,-0.14145 -0.50392,0.25197 0.24314,0.39342 0.0788,0.47558 -0.50393,0.25196 -0.58275,-0.22362 -0.74708,-0.14145 -0.50392,0.25196 0.24314,0.39343 0.0788,0.47559 -0.50393,0.25196 -0.58275,-0.22362 -0.74707,-0.14145 -0.50392,0.25197 0.24314,0.39342 0.0788,0.47558 -0.50393,0.25196 -0.58275,-0.22362 -0.74707,-0.14146 -0.50392,0.25196 0.24314,0.39343 0.0788,0.47559 -0.50392,0.25196 -0.58276,-0.22362 -0.74708,-0.14145 -0.50393,0.25196 0.24314,0.39343 0.0788,0.47559 -0.50392,0.25197 -0.58275,-0.22362 -0.74708,-0.14146 -0.50393,0.25196 0.24314,0.39342 0.0788,0.47558 -0.50392,0.25196 -0.49912,-0.19152 -0.73846,-0.1275 -0.56606,0.15143 0.29623,0.47932 -9.45755,5.67341 -10.19333,5.42815 -0.2109,-0.0703 -0.45387,0.099 -0.53994,0.37611 -0.23466,0.75566 -2.22229,2.77158 -2.73267,2.77158 -0.2452,0 -0.28008,-0.28345 -0.0775,-0.6299 0.20258,-0.34645 -0.12558,-0.19666 -0.72924,0.33286 -0.60365,0.52952 -0.98071,1.07961 -0.83789,1.22242 0.32069,0.3207 -1.77191,2.60209 -2.38676,2.60209 -0.24521,0 -0.28008,-0.28345 -0.0775,-0.6299 0.20257,-0.34645 -0.11884,-0.20276 -0.71427,0.31931 -0.59542,0.52206 -0.98154,1.11271 -0.85804,1.31254 0.32116,0.51963 -1.97865,2.56926 -3.09131,2.75503 -0.51503,0.086 -0.88977,0.37956 -0.83275,0.6524 0.14526,0.69497 -2.0707,2.68675 -3.19864,2.87507 -0.51504,0.086 -0.88978,0.37957 -0.83276,0.6524 0.14526,0.69497 -2.07069,2.68675 -3.19864,2.87507 -0.51503,0.086 -0.88977,0.37957 -0.83275,0.6524 0.1469,0.70288 -2.08086,2.69211 -3.19864,2.85616 -0.51504,0.0756 -0.93991,0.34259 -0.94415,0.59333 -0.0138,0.81309 -0.80611,1.73937 -1.2521,1.46373 -0.23885,-0.14762 -0.59837,-0.003 -0.79892,0.3216 -0.24088,0.38975 -0.145,0.45426 0.28251,0.19004 0.4314,-0.26662 0.56936,-0.16657 0.41382,0.30009 -0.12835,0.38502 -0.47902,0.70004 -0.77927,0.70004 -0.30026,0 -0.73489,0.20644 -0.96586,0.45874 -0.24398,0.26652 -0.156,0.30685 0.20997,0.0962 0.34645,-0.19937 0.6299,-0.15011 0.6299,0.10947 0,0.63602 -1.28113,1.66588 -1.63372,1.31329 -0.15465,-0.15466 -0.24717,0.13077 -0.2056,0.63427 0.0416,0.5035 -0.18119,0.86767 -0.49503,0.80925 -0.31384,-0.0584 -0.54061,0.28172 -0.50393,0.75588 0.0367,0.47416 -0.19008,0.81431 -0.50392,0.75589 -0.31384,-0.0584 -0.54061,0.28172 -0.50392,0.75588 0.0367,0.47417 -0.23362,0.7998 -0.60067,0.72364 -0.36705,-0.0761 -0.52683,0.0889 -0.35508,0.36682 0.39118,0.63295 -4.66862,8.2102 -5.24471,7.85416 -0.232123,-0.14346 -0.390949,0.13356 -0.352952,0.61561 0.038,0.48204 -0.187691,0.82865 -0.501533,0.77022 -0.313841,-0.0584 -0.54061,0.28173 -0.503924,0.75589 0.03671,0.47416 -0.190083,0.81431 -0.503924,0.75589 -0.313842,-0.0584 -0.54061,0.28172 -0.503924,0.75588 0.03671,0.47416 -0.233617,0.7998 -0.600667,0.72364 -0.367046,-0.0762 -0.529075,0.0853 -0.360058,0.35876 0.429005,0.69415 -3.267907,6.13084 -3.902309,5.73876 -0.284455,-0.17581 -0.374726,-0.0891 -0.200602,0.19262 0.398791,0.64525 -1.173958,4.73895 -1.696556,4.41596 -0.212315,-0.13122 -0.258069,0.25073 -0.101677,0.84877 0.182208,0.69676 0.0917,0.96828 -0.251963,0.75588 -0.343662,-0.21239 -0.434165,0.0591 -0.251962,0.75589 0.182209,0.69676 0.0917,0.96828 -0.251962,0.75589 -0.343663,-0.21239 -0.434165,0.0591 -0.251962,0.75588 0.182208,0.69677 0.0917,0.96828 -0.251962,0.75589 -0.343663,-0.21239 -0.434165,0.0591 -0.251962,0.75589 0.211836,0.81006 0.115744,0.98314 -0.376817,0.67872 -0.442712,-0.27361 -0.539928,-0.21245 -0.294228,0.1851 0.452807,0.73265 -1.647362,7.22709 -2.222201,6.87181 -0.228059,-0.14094 -0.286691,0.23305 -0.1303,0.83108 0.182208,0.69676 0.0917,0.96828 -0.251962,0.75589 -0.343663,-0.21239 -0.434165,0.0591 -0.251963,0.75588 0.182209,0.69677 0.0917,0.96828 -0.251962,0.75589 -0.343663,-0.21239 -0.434165,0.0591 -0.251962,0.75588 0.182208,0.69677 0.0917,0.96829 -0.251962,0.75589 -0.343663,-0.21239 -0.434165,0.0591 -0.251962,0.75589 0.211836,0.81006 0.115744,0.98314 -0.376817,0.67872 -0.44283,-0.27368 -0.539928,-0.21246 -0.294039,0.18541 0.417991,0.67632 -2.128566,8.75271 -2.656856,8.42621 -0.189572,-0.11716 -0.291583,0.73165 -0.226683,1.88626 0.09301,1.65491 0.03333,1.83262 -0.28216,0.83948 -0.237433,-0.74752 -0.346985,0.89181 -0.269404,4.03139 0.08768,3.54862 0.0032,4.62737 -0.25758,3.27551 -0.244302,-1.26812 -0.335917,0.32047 -0.247038,4.28336 0.09019,4.02089 -0.0011,5.57004 -0.251962,4.28336 -0.251016,-1.28669 -0.342147,0.26247 -0.251962,4.28335 0.08311,3.70546 -0.01027,5.46911 -0.226764,4.28336 -0.232165,-1.27149 -0.360713,0.52287 -0.348162,4.86003 0.01129,3.90827 0.21453,6.75764 0.470894,6.6021 0.248049,-0.15049 0.337503,0.32013 0.198775,1.04583 -0.152688,0.79872 -0.05536,1.19779 0.246597,1.01116 0.30465,-0.18828 0.409891,0.29771 0.270351,1.24845 -0.13567,0.92437 -0.03112,1.43478 0.257321,1.2565 0.286036,-0.17678 0.382085,0.24234 0.233579,1.01921 -0.152687,0.79872 -0.05536,1.19779 0.246598,1.01116 0.30465,-0.18828 0.409891,0.29771 0.270351,1.24845 -0.13567,0.92437 -0.03112,1.43478 0.257321,1.2565 0.286036,-0.17678 0.382085,0.24234 0.233579,1.01921 -0.152688,0.79872 -0.05536,1.19778 0.246598,1.01116 0.30465,-0.18829 0.40989,0.29771 0.27035,1.24845 -0.135669,0.92437 -0.03112,1.43478 0.257322,1.25649 0.286035,-0.17677 0.382084,0.24235 0.233579,1.01922 -0.152688,0.79872 -0.05537,1.19778 0.246597,1.01116 0.30465,-0.18829 0.409891,0.29771 0.270351,1.24845 -0.13567,0.92437 -0.03112,1.43478 0.257321,1.25649 0.286036,-0.17677 0.382085,0.24235 0.233579,1.01922 -0.152687,0.79872 -0.05536,1.19778 0.246598,1.01116 0.30465,-0.18829 0.409891,0.29771 0.270351,1.24845 -0.13567,0.92436 -0.03112,1.43478 0.257321,1.25649 0.286035,-0.17677 0.382085,0.24235 0.233579,1.01921 -0.152688,0.79873 -0.05536,1.19779 0.246598,1.01117 0.304649,-0.18829 0.40989,0.2977 0.27035,1.24845 -0.13567,0.92436 -0.03112,1.43478 0.257322,1.25649 0.286035,-0.17677 0.382084,0.24235 0.233579,1.01921 -0.152688,0.79872 -0.05536,1.19779 0.246597,1.01117 0.30465,-0.18829 0.409891,0.2977 0.270351,1.24845 -0.139406,0.94985 -0.03419,1.43666 0.269894,1.24872 0.296157,-0.18303 0.363739,0.0429 0.166555,0.55671 -0.223624,0.58275 -0.141458,0.74707 0.251963,0.50393 0.393421,-0.24315 0.475581,-0.0788 0.251962,0.50392 -0.223624,0.58275 -0.141459,0.74707 0.251962,0.50392 0.40479,-0.25017 0.471119,-0.0651 0.21633,0.60374 -0.246684,0.64753 -0.200301,0.79891 0.14112,0.46061 0.341669,-0.33855 -0.570222,-5.29991 -2.778609,-15.11773 z M 82.751642,610.1639 c -0.127763,-0.4903 -0.240707,-0.21116 -0.250973,0.62032 -0.01027,0.83147 0.09426,1.23262 0.232305,0.89146 0.138035,-0.34118 0.146431,-1.02147 0.0187,-1.51178 z M 356.3807,603.6033 c -0.12675,-0.48503 -0.23046,-0.0882 -0.23046,0.88186 0,0.97006 0.10371,1.3669 0.23046,0.88187 0.12675,-0.48503 0.12675,-1.27871 0,-1.76373 z M 78.718404,602.59545 c -0.126753,-0.48503 -0.230462,-0.0882 -0.230462,0.88186 0,0.97006 0.103709,1.3669 0.230462,0.88187 0.126747,-0.48503 0.126747,-1.27871 0,-1.76373 z m 4.544354,-0.75001 c -0.120533,-0.62684 -0.223732,-0.23265 -0.229327,0.87599 -0.0056,1.10863 0.09303,1.6215 0.219157,1.1397 0.126129,-0.4818 0.130703,-1.38886 0.01016,-2.01569 z m 272.614022,-4.79316 c -0.12675,-0.48503 -0.23046,-0.0882 -0.23046,0.88187 0,0.97005 0.10371,1.36689 0.23046,0.88187 0.12674,-0.48503 0.12674,-1.27871 0,-1.76374 z M 83.765908,592.76892 c -0.120108,-0.6236 -0.218383,-0.11338 -0.218383,1.13383 0,1.24721 0.09828,1.75744 0.218383,1.13383 0.12012,-0.6236 0.12012,-1.64405 0,-2.26766 z m 271.606942,-2.26765 c -0.12675,-0.48504 -0.23046,-0.0882 -0.23046,0.88186 0,0.97006 0.10371,1.3669 0.23046,0.88187 0.12675,-0.48503 0.12675,-1.27871 0,-1.76373 z M 84.270607,584.71202 c -0.120534,-0.62684 -0.223732,-0.23264 -0.229327,0.87599 -0.0056,1.10863 0.09303,1.6215 0.219157,1.13971 0.126129,-0.4818 0.130703,-1.38887 0.01016,-2.0157 z m 270.598323,-0.76176 c -0.12675,-0.48503 -0.23046,-0.0882 -0.23046,0.88186 0,0.97006 0.10371,1.3669 0.23046,0.88187 0.12675,-0.48503 0.12675,-1.27871 0,-1.76373 z m -0.50208,-6.0375 c -0.12776,-0.49031 -0.24071,-0.21116 -0.25097,0.62031 -0.0103,0.83148 0.0943,1.23263 0.2323,0.89146 0.13804,-0.34117 0.14643,-1.02147 0.0187,-1.51177 z M 116.73356,516.4244 c 0.62682,-0.79926 0.60899,-0.81708 -0.19026,-0.19026 -0.83941,0.65831 -1.10636,1.07213 -0.69161,1.07213 0.10465,0 0.50149,-0.39684 0.88187,-0.88187 z m 4.21908,-3.65345 c 0.50165,-0.55432 0.79871,-1.00785 0.66013,-1.00785 -0.13858,0 -0.66241,0.45353 -1.16406,1.00785 -0.50165,0.55431 -0.79871,1.00785 -0.66013,1.00785 0.13858,0 0.66241,-0.45354 1.16406,-1.00785 z m 199.60668,-2.77159 c 1.65567,-4.33359 1.59164,-4.78413 -0.68256,-4.80276 -2.21567,-0.0181 -7.48086,-2.06838 -7.32666,-2.85296 0.0584,-0.29725 -0.28173,-0.51045 -0.75589,-0.47376 -0.47416,0.0367 -0.80813,-0.2086 -0.74217,-0.54507 0.066,-0.33648 -0.16947,-0.50072 -0.5232,-0.36498 -0.88527,0.33971 -3.02961,-2.01222 -4.85601,-5.32608 -0.96558,-1.75197 -1.53163,-2.39791 -1.54229,-1.75996 -0.0142,0.84902 -0.10025,0.88872 -0.54607,0.25196 -0.41886,-0.59828 -0.46555,-0.5284 -0.22388,0.33509 0.44144,1.57734 -0.22509,3.9983 -0.85742,3.11428 -0.35918,-0.50215 -0.40693,-0.43786 -0.18423,0.24813 0.16533,0.50926 0.44537,1.86985 0.62232,3.02355 0.99311,6.47486 7.99469,12.50268 14.24257,12.26173 l 2.22034,-0.0856 z m -195.25904,-1.13382 c 0.62681,-0.79926 0.60899,-0.81708 -0.19027,-0.19027 -0.83941,0.65832 -1.10635,1.07213 -0.69161,1.07213 0.10465,0 0.50149,-0.39684 0.88188,-0.88186 z m 4.03139,-3.52747 c 0.62682,-0.79926 0.60899,-0.81708 -0.19026,-0.19027 -0.83941,0.65832 -1.10636,1.07213 -0.69161,1.07213 0.10464,0 0.50148,-0.39684 0.88187,-0.88186 z M 319.6143,504.4037 c -0.16744,-0.16745 -0.60209,-0.18535 -0.96585,-0.0398 -0.402,0.16086 -0.28259,0.28027 0.30445,0.30445 0.53122,0.0219 0.82885,-0.0972 0.6614,-0.26468 z m 7.91425,-1.5554 c 4.02472,-1.12185 8.31007,-5.19236 9.32933,-8.8616 0.8356,-3.00808 0.45164,-7.13021 -0.91339,-9.80588 -1.45984,-2.86153 -5.65352,-6.4388 -9.03716,-7.70884 -3.88004,-1.45636 -9.81786,-1.23263 -13.39275,0.50463 -12.09698,5.87867 -9.44789,22.35886 4.1849,26.03465 3.24635,0.87531 6.28497,0.82493 9.82907,-0.16296 z m -10.04543,-5.95977 c -5.05385,-2.72132 -6.61656,-7.21567 -4.03851,-11.61476 3.54516,-6.04937 13.2516,-5.43088 16.38609,1.04412 2.83551,5.85736 -0.52347,10.87961 -7.50518,11.22155 -2.36279,0.11573 -3.76993,-0.0734 -4.8424,-0.65091 z m 4.8427,-2.07519 c -1.15095,-0.80615 -5.59859,-1.61741 -5.59859,-1.02118 0,0.69171 2.91541,1.80646 4.77343,1.82518 1.99535,0.0201 1.99803,0.0175 0.82516,-0.804 z m 2.4642,0.63392 c 0,-0.10464 -0.39684,-0.50148 -0.88186,-0.88187 -0.79926,-0.62681 -0.81708,-0.60899 -0.19027,0.19027 0.65832,0.83941 1.07213,1.10635 1.07213,0.6916 z m 3.32458,-3.25981 c 0.75244,-1.58566 0.7559,-2.13713 0.0394,-6.26611 -0.0857,-0.49363 -0.56939,-1.28731 -1.07497,-1.76374 -0.50556,-0.47642 -0.7605,-0.58277 -0.56652,-0.23632 0.45433,0.81145 0.27302,0.79398 -1.6341,-0.15742 -5.08526,-2.53685 -11.39688,1.04237 -10.47774,5.94178 l 0.33545,1.78814 3.48677,0.19703 c 2.9834,0.16857 3.76328,0.42082 5.40211,1.74723 2.22453,1.80046 3.16625,1.53814 4.4896,-1.25059 z m 1.55996,-2.96537 c -0.12777,-0.49031 -0.24071,-0.21116 -0.25098,0.62031 -0.0103,0.83148 0.0943,1.23263 0.23231,0.89146 0.13803,-0.34117 0.14643,-1.02147 0.0187,-1.51177 z m -9.55633,-6.99105 c -0.16745,-0.16745 -0.60209,-0.18535 -0.96586,-0.0398 -0.40199,0.16086 -0.28259,0.28027 0.30446,0.30445 0.53122,0.0219 0.82885,-0.0972 0.6614,-0.26468 z m -186.25124,19.07564 c 0.62682,-0.79926 0.60899,-0.81708 -0.19026,-0.19026 -0.83941,0.65831 -1.10636,1.07213 -0.69161,1.07213 0.10464,0 0.50148,-0.39684 0.88187,-0.88187 z m 4.03139,-3.52747 c 0.62682,-0.79926 0.609,-0.81708 -0.19026,-0.19026 -0.83941,0.65831 -1.10636,1.07213 -0.69161,1.07213 0.10465,0 0.50149,-0.39684 0.88187,-0.88187 z m 161.69543,-0.82017 c 0,-0.10464 -0.39684,-0.50148 -0.88187,-0.88187 -0.79925,-0.62681 -0.81708,-0.60899 -0.19026,0.19027 0.65831,0.83941 1.07213,1.10635 1.07213,0.6916 z m 38.63199,-5.47888 c -0.1398,-0.34646 -0.25418,-0.063 -0.25418,0.6299 0,0.69289 0.11438,0.97636 0.25418,0.62991 0.13979,-0.34645 0.13979,-0.91337 0,-1.25981 z m -33.3785,0.065 c -0.32658,-0.5284 -1.2221,-0.10422 -1.2221,0.57887 0,0.25211 0.33885,0.32835 0.753,0.16942 0.41414,-0.15892 0.62523,-0.49565 0.4691,-0.74829 z m 30.52513,-10.17057 c 0,-0.0842 -0.85037,-0.93458 -1.88971,-1.88971 l -1.88972,-1.73661 1.73661,1.88972 c 1.61639,1.7589 2.04282,2.12141 2.04282,1.7366 z m -16.76598,-6.70236 c -0.16744,-0.16745 -0.60209,-0.18535 -0.96585,-0.0398 -0.402,0.16086 -0.28259,0.28027 0.30445,0.30445 0.53122,0.0219 0.82885,-0.0972 0.6614,-0.26467 z m 5.54317,0 c -0.16745,-0.16745 -0.60209,-0.18535 -0.96586,-0.0398 -0.40199,0.16086 -0.28259,0.28027 0.30446,0.30445 0.53122,0.0219 0.82885,-0.0972 0.6614,-0.26467 z M 236.3513,780.35476 c 0.1713,-0.27716 -0.0555,-0.50392 -0.50392,-0.50392 -0.44845,0 -0.67521,0.22676 -0.50392,0.50392 0.17129,0.27716 0.39806,0.50392 0.50392,0.50392 0.10587,0 0.33263,-0.22676 0.50392,-0.50392 z m -33.76292,-0.50392 c 0.17129,-0.27716 -0.0421,-0.50393 -0.47419,-0.50393 -0.43209,0 -0.78563,0.22677 -0.78563,0.50393 0,0.27716 0.21339,0.50392 0.47419,0.50392 0.2608,0 0.61433,-0.22676 0.78563,-0.50392 z m 37.2904,0 c 0.17129,-0.27716 0.0713,-0.50393 -0.22223,-0.50393 -0.29351,0 -0.53366,0.22677 -0.53366,0.50393 0,0.27716 0.1,0.50392 0.22222,0.50392 0.12222,0 0.36237,-0.22676 0.53367,-0.50392 z m -41.06984,-0.50393 c 0,-0.27715 -0.34014,-0.50392 -0.75588,-0.50392 -0.41574,0 -0.75589,0.22677 -0.75589,0.50392 0,0.27716 0.34015,0.50393 0.75589,0.50393 0.41574,0 0.75588,-0.22677 0.75588,-0.50393 z m 44.59731,0 c 0.17129,-0.27715 0.0713,-0.50392 -0.22223,-0.50392 -0.29351,0 -0.53366,0.22677 -0.53366,0.50392 0,0.27716 0.1,0.50393 0.22222,0.50393 0.12222,0 0.36237,-0.22677 0.53367,-0.50393 z m -48.37674,-0.50392 c 0.1713,-0.27716 -0.0421,-0.50393 -0.47418,-0.50393 -0.4321,0 -0.78563,0.22677 -0.78563,0.50393 0,0.27716 0.21338,0.50392 0.47418,0.50392 0.2608,0 0.61434,-0.22676 0.78563,-0.50392 z m 51.90421,0 c 0.17129,-0.27716 0.0713,-0.50393 -0.22223,-0.50393 -0.29351,0 -0.53366,0.22677 -0.53366,0.50393 0,0.27716 0.1,0.50392 0.22222,0.50392 0.12222,0 0.36237,-0.22676 0.53367,-0.50392 z m -55.68364,-0.50393 c 0,-0.27715 -0.34015,-0.50392 -0.75589,-0.50392 -0.41574,0 -0.75588,0.22677 -0.75588,0.50392 0,0.27716 0.34014,0.50393 0.75588,0.50393 0.41574,0 0.75589,-0.22677 0.75589,-0.50393 z m 59.71503,0 c 0.1713,-0.27715 -0.0421,-0.50392 -0.47418,-0.50392 -0.4321,0 -0.78563,0.22677 -0.78563,0.50392 0,0.27716 0.21338,0.50393 0.47418,0.50393 0.2608,0 0.61434,-0.22677 0.78563,-0.50393 z m -63.49446,-0.50392 c 0.17129,-0.27716 -0.0421,-0.50393 -0.47419,-0.50393 -0.43209,0 -0.78562,0.22677 -0.78562,0.50393 0,0.27716 0.21338,0.50392 0.47418,0.50392 0.2608,0 0.61434,-0.22676 0.78563,-0.50392 z m 67.02193,0 c 0.1713,-0.27716 -0.0555,-0.50393 -0.50392,-0.50393 -0.44846,0 -0.67522,0.22677 -0.50393,0.50393 0.1713,0.27716 0.39806,0.50392 0.50393,0.50392 0.10586,0 0.33263,-0.22676 0.50392,-0.50392 z m -70.80137,-0.50393 c 0,-0.27715 -0.34014,-0.50392 -0.75588,-0.50392 -0.41574,0 -0.75589,0.22677 -0.75589,0.50392 0,0.27716 0.34015,0.50393 0.75589,0.50393 0.41574,0 0.75588,-0.22677 0.75588,-0.50393 z m 74.32884,0 c 0.1713,-0.27715 -0.0555,-0.50392 -0.50392,-0.50392 -0.44846,0 -0.67522,0.22677 -0.50393,0.50392 0.1713,0.27716 0.39806,0.50393 0.50393,0.50393 0.10586,0 0.33263,-0.22677 0.50392,-0.50393 z m -78.36023,-0.50392 c 0,-0.27716 -0.22676,-0.50393 -0.50392,-0.50393 -0.27716,0 -0.50393,0.22677 -0.50393,0.50393 0,0.27716 0.22677,0.50392 0.50393,0.50392 0.27716,0 0.50392,-0.22676 0.50392,-0.50392 z m 81.8877,0 c 0.1713,-0.27716 -0.0555,-0.50393 -0.50392,-0.50393 -0.44846,0 -0.67522,0.22677 -0.50393,0.50393 0.1713,0.27716 0.39806,0.50392 0.50393,0.50392 0.10586,0 0.33263,-0.22676 0.50392,-0.50392 z m -85.66713,-0.50393 c 0.17129,-0.27715 -0.0421,-0.50392 -0.47419,-0.50392 -0.43209,0 -0.78562,0.22677 -0.78562,0.50392 0,0.27717 0.21338,0.50393 0.47418,0.50393 0.2608,0 0.61434,-0.22676 0.78563,-0.50393 z m 89.1946,0 c 0.1713,-0.27715 0.0713,-0.50392 -0.22222,-0.50392 -0.29351,0 -0.53367,0.22677 -0.53367,0.50392 0,0.27717 0.1,0.50393 0.22223,0.50393 0.12222,0 0.36237,-0.22676 0.53366,-0.50393 z m -92.97404,-0.50392 c 0,-0.27716 -0.22676,-0.50392 -0.50392,-0.50392 -0.27716,0 -0.50392,0.22676 -0.50392,0.50392 0,0.27716 0.22676,0.50392 0.50392,0.50392 0.27716,0 0.50392,-0.22676 0.50392,-0.50392 z m 96.50151,0 c 0.1713,-0.27716 0.0713,-0.50392 -0.22222,-0.50392 -0.29351,0 -0.53367,0.22676 -0.53367,0.50392 0,0.27716 0.1,0.50392 0.22223,0.50392 0.12222,0 0.36237,-0.22676 0.53366,-0.50392 z m 3.52747,-0.50392 c 0.1713,-0.27716 0.0713,-0.50393 -0.22222,-0.50393 -0.29351,0 -0.53367,0.22677 -0.53367,0.50393 0,0.27716 0.10001,0.50392 0.22223,0.50392 0.12222,0 0.36237,-0.22676 0.53366,-0.50392 z M 63.821508,500.29882 c 0.626817,-0.79926 0.608993,-0.81707 -0.19026,-0.19026 -0.485031,0.38039 -0.881871,0.77723 -0.881871,0.88187 0,0.41475 0.41382,0.1478 1.072131,-0.69161 z m 309.849172,-2.29478 c 0,-0.0842 -0.85037,-0.93459 -1.88971,-1.88972 l -1.88972,-1.73661 1.73661,1.88972 c 1.61639,1.7589 2.04282,2.12141 2.04282,1.73661 z M 69.048432,494.62967 c 0.50165,-0.55431 0.798711,-1.00785 0.660133,-1.00785 -0.138578,0 -0.662407,0.45354 -1.164057,1.00785 -0.501651,0.55432 -0.798711,1.00785 -0.660128,1.00785 0.138578,0 0.662401,-0.45353 1.164052,-1.00785 z m 296.559458,-5.19235 c 0,-0.0842 -0.85037,-0.93458 -1.88971,-1.88971 l -1.88972,-1.73661 1.73661,1.88972 c 1.61639,1.7589 2.04282,2.12141 2.04282,1.7366 z M 75.095524,488.07866 c 0.50165,-0.55432 0.79871,-1.00785 0.660132,-1.00785 -0.138577,0 -0.662406,0.45353 -1.164057,1.00785 -0.50165,0.55431 -0.79871,1.00784 -0.660127,1.00784 0.138578,0 0.662401,-0.45353 1.164052,-1.00784 z m 5.795129,-6.29906 c 0.650947,-0.69289 1.070153,-1.25981 0.93157,-1.25981 -0.138578,0 -0.784547,0.56692 -1.435494,1.25981 -0.650941,0.6929 -1.070147,1.25981 -0.931569,1.25981 0.138578,0 0.784552,-0.56691 1.435493,-1.25981 z M 357.5451,480.86603 c 0,-0.0867 -0.73698,-0.82371 -1.63775,-1.63775 l -1.63775,-1.48007 1.48007,1.63775 c 1.37963,1.52662 1.79543,1.86938 1.79543,1.48007 z M 86.685783,475.48055 c 0.501651,-0.55432 0.798711,-1.00785 0.660133,-1.00785 -0.138578,0 -0.662407,0.45353 -1.164057,1.00785 -0.501651,0.55431 -0.798711,1.00785 -0.660128,1.00785 0.138578,0 0.662401,-0.45354 1.164052,-1.00785 z m 262.796527,-3.18123 c 0,-0.0867 -0.73698,-0.82372 -1.63775,-1.63776 l -1.63775,-1.48007 1.48007,1.63776 c 1.37963,1.52661 1.79543,1.86938 1.79543,1.48007 z M 92.480913,469.18149 c 0.650946,-0.69289 1.070152,-1.25981 0.931569,-1.25981 -0.138578,0 -0.784547,0.56692 -1.435494,1.25981 -0.650941,0.6929 -1.070147,1.25981 -0.931569,1.25981 0.138578,0 0.784552,-0.56691 1.435494,-1.25981 z m 85.026737,-41.87821 c -0.16745,-0.16745 -0.6021,-0.18535 -0.96586,-0.0398 -0.402,0.16086 -0.28259,0.28027 0.30445,0.30445 0.53122,0.0219 0.82885,-0.0972 0.66141,-0.26468 z m 81.13181,-0.50392 c -0.16745,-0.16745 -0.60209,-0.18535 -0.96586,-0.0398 -0.40199,0.16086 -0.28259,0.28027 0.30446,0.30446 0.53122,0.0219 0.82885,-0.0972 0.6614,-0.26468 z m -4.53532,-0.50393 c -0.16745,-0.16745 -0.60209,-0.18534 -0.96586,-0.0398 -0.40199,0.16086 -0.28259,0.28027 0.30446,0.30445 0.53122,0.0219 0.82885,-0.0972 0.6614,-0.26468 z m -4.53532,-0.50392 c -0.16744,-0.16745 -0.60209,-0.18535 -0.96585,-0.0398 -0.402,0.16087 -0.28259,0.28028 0.30445,0.30446 0.53122,0.0219 0.82885,-0.0972 0.6614,-0.26468 z m -4.53532,-0.50393 c -0.16744,-0.16744 -0.60209,-0.18534 -0.96585,-0.0398 -0.402,0.16086 -0.28259,0.28027 0.30445,0.30445 0.53122,0.0219 0.82885,-0.0972 0.6614,-0.26468 z m -45.85711,-0.50392 c -0.16745,-0.16745 -0.60209,-0.18535 -0.96586,-0.0398 -0.40199,0.16087 -0.28259,0.28028 0.30446,0.30446 0.53122,0.0219 0.82885,-0.0972 0.6614,-0.26468 z m 41.3218,0 c -0.16745,-0.16745 -0.6021,-0.18535 -0.96586,-0.0398 -0.402,0.16087 -0.28259,0.28028 0.30445,0.30446 0.53122,0.0219 0.82885,-0.0972 0.66141,-0.26468 z m -4.53532,-0.50392 c -0.16745,-0.16745 -0.60209,-0.18535 -0.96586,-0.0398 -0.402,0.16086 -0.28259,0.28027 0.30446,0.30446 0.53121,0.0219 0.82884,-0.0972 0.6614,-0.26468 z m -28.21977,-0.50393 c -0.16744,-0.16745 -0.60209,-0.18535 -0.96585,-0.0398 -0.402,0.16087 -0.28259,0.28028 0.30445,0.30446 0.53122,0.0219 0.82885,-0.0972 0.6614,-0.26468 z m 23.68445,0 c -0.16745,-0.16745 -0.60209,-0.18535 -0.96586,-0.0398 -0.40199,0.16087 -0.28259,0.28028 0.30446,0.30446 0.53122,0.0219 0.82885,-0.0972 0.6614,-0.26468 z m -4.53532,-0.50392 c -0.16745,-0.16745 -0.60209,-0.18535 -0.96586,-0.0398 -0.40199,0.16086 -0.28259,0.28027 0.30446,0.30446 0.53122,0.0219 0.82885,-0.0972 0.6614,-0.26468 z m -10.58241,-0.50393 c -0.16745,-0.16745 -0.60209,-0.18534 -0.96586,-0.0398 -0.40199,0.16086 -0.28259,0.28027 0.30446,0.30445 0.53122,0.0219 0.82885,-0.0972 0.6614,-0.26468 z m 6.04709,0 c -0.16745,-0.16745 -0.60209,-0.18534 -0.96586,-0.0398 -0.40199,0.16086 -0.28259,0.28027 0.30446,0.30445 0.53122,0.0219 0.82885,-0.0972 0.6614,-0.26468 z"
       id="path4147" />
  </g>
  <path
     id="path4143"
     d="m 222.44655,394.08284 c -0.75286,-0.11699 -11.96365,-1.59374 -24.91287,-3.28167 L 173.98964,387.7322 149.75948,377.38131 125.52932,367.03041 105.22168,350.62162 84.91403,334.21283 70.542769,313.81859 56.171507,293.42436 48.354591,270.9754 40.537675,248.52643 39.224571,224.8238 37.911468,201.12118 42.912021,178.83081 47.912573,156.54044 58.387685,136.64432 68.862798,116.7482 84.574397,99.685667 100.286,82.623131 l 18.69259,-12.270045 18.69259,-12.270044 21.17068,-7.600562 21.17068,-7.600562 22.10863,-2.565541 22.10864,-2.56554 22.51552,2.520912 22.51552,2.520912 21.04005,7.458484 21.04005,7.458484 18.82391,12.182983 18.82391,12.182983 15.61606,16.578832 15.61606,16.578833 10.93503,19.99683 10.93502,19.99684 5.38296,22.55818 5.38296,22.55819 -0.95999,23.54403 -0.95999,23.54403 -7.63442,22.72273 -7.63441,22.72273 -13.95067,20.25882 -13.95067,20.25882 -20.34538,16.69984 -20.34539,16.69984 -23.70596,10.27369 -23.70595,10.27369 -11.49825,1.6207 c -21.05287,2.96744 -40.88464,5.48336 -42.62784,5.4079 -0.94741,-0.041 -2.33853,-0.17029 -3.09139,-0.28728 z m 44.01312,-56.32595 18.55271,-5.12423 16.60973,-9.94908 c 18.61805,-11.15204 16.8418,-9.66944 34.91441,-29.1424 7.43804,-8.01438 8.25647,-9.11075 11.24012,-15.05724 1.76988,-3.52741 5.54374,-10.86551 8.38637,-16.30689 l 5.16841,-9.89341 3.49384,-17.55999 3.49384,-17.55998 -1.42366,-17.71829 -1.42366,-17.7183 -5.92358,-16.1523 -5.92358,-16.1523 -7.90845,-11.22448 c -4.34964,-6.17346 -8.99695,-12.66731 -10.32735,-14.43076 -1.3304,-1.76346 -2.53616,-3.51181 -2.67945,-3.88524 -0.15734,-0.41 0.69322,-1.04321 2.14714,-1.59847 8.39835,-3.20736 12.31459,-12.80568 8.44223,-20.69107 -5.21377,-10.616927 -20.04576,-13.650897 -28.58436,-5.847098 -1.61685,1.477703 -3.49032,3.848779 -4.16328,5.269053 -0.67296,1.420275 -1.27704,2.655127 -1.3424,2.744118 -0.0654,0.08898 -1.44198,-0.618365 -3.05917,-1.571893 -1.61718,-0.953528 -9.22357,-4.871731 -16.90307,-8.707121 l -13.96272,-6.973433 -15.68235,-3.637343 -15.68235,-3.637344 -19.21791,0 -19.21791,0 -16.25651,3.91042 -16.25652,3.910419 -15.79642,8.154911 -15.79642,8.154913 -12.89394,11.341818 -12.89393,11.34182 -8.92173,13.16469 c -4.90695,7.24058 -9.413093,14.13953 -10.013652,15.331 -0.600565,1.19147 -3.492582,9.06525 -6.426715,17.4973 l -5.334785,15.331 -1.078656,17.79491 -1.078656,17.79491 3.885608,17.41854 3.885608,17.41854 6.931388,12.69592 c 3.81227,6.98276 8.1205,14.764 9.57385,17.29166 1.45335,2.52766 2.64246,4.65353 2.64246,4.72418 0,0.0706 -1.50037,0.68954 -3.33416,1.37533 -4.54556,1.69993 -8.715951,5.58811 -11.025446,10.27935 -1.630736,3.3125 -1.791033,4.08771 -1.774316,8.58081 0.01582,4.25582 0.227988,5.3714 1.533143,8.06158 1.913605,3.94432 5.999379,7.67055 10.110099,9.2204 4.4841,1.69064 11.26331,1.35768 15.60479,-0.76641 4.28752,-2.09768 7.57303,-5.48925 9.82235,-10.13941 1.62835,-3.36637 2.00169,-3.80948 2.60112,-3.08722 0.82073,0.98892 11.62124,7.62027 25.32696,15.55036 l 9.71575,5.62151 18.75611,5.14545 18.75611,5.14546 21.08012,-0.30721 21.08013,-0.30722 18.55271,-5.12424 z"
     style="opacity:1;fill:#bfb6b6;fill-opacity:1;stroke:#000000;stroke-width:1.5;stroke-linecap:round;stroke-linejoin:bevel;stroke-miterlimit:4;stroke-dasharray:none;stroke-dashoffset:0;stroke-opacity:1" />
  <path
     id="path4145"
     d="m 85.825645,223.01892 c -0.942399,-4.12619 -0.964104,-5.24388 -0.316365,-16.29056 1.217431,-20.76232 1.39286,-22.05006 4.172784,-30.63029 1.393338,-4.30053 2.88307,-8.48918 3.310514,-9.3081 0.427445,-0.81892 0.93724,-2.35132 1.132878,-3.40533 0.195638,-1.05401 0.590618,-2.06898 0.877733,-2.2555 0.287114,-0.18652 0.559563,-0.98712 0.605441,-1.7791 0.04588,-0.79199 0.260475,-1.44016 0.476882,-1.44037 0.216408,-2.1e-4 0.282646,-0.30838 0.147198,-0.68481 -0.388055,-1.07846 7.08102,-14.64657 8.06276,-14.64657 0.237,0 0.43091,-0.25365 0.43091,-0.56365 0,-0.31 0.92397,-1.73494 2.05326,-3.16653 1.12929,-1.43159 3.03819,-4.29065 4.24199,-6.35347 1.2038,-2.06282 2.73949,-4.27215 3.41264,-4.90962 0.67315,-0.63747 1.22816,-1.46703 1.23337,-1.84346 0.005,-0.37643 0.25585,-0.68442 0.55699,-0.68442 0.30115,0 0.54754,-0.31069 0.54754,-0.69043 0,-0.37973 0.77918,-1.3037 1.73152,-2.05325 0.95234,-0.74956 2.55541,-2.10201 3.56238,-3.00544 1.00697,-0.90343 2.82428,-2.50498 4.03846,-3.55898 1.21418,-1.05401 3.20389,-2.84034 4.42157,-3.96964 1.21768,-1.12929 2.44634,-2.05325 2.73037,-2.05325 0.28402,0 0.7506,-0.61598 1.03684,-1.36884 0.31558,-0.83005 0.95127,-1.36884 1.61499,-1.36884 0.6624,0 1.42994,-0.64855 1.94399,-1.64261 0.46718,-0.90343 1.1376,-1.64261 1.48982,-1.64261 0.35222,0 1.26986,-0.59486 2.0392,-1.32192 1.37642,-1.30078 7.01681,-4.440719 15.63473,-8.703677 2.40916,-1.191718 4.46241,-2.380172 4.56279,-2.641008 0.10039,-0.260836 0.49847,-0.474247 0.88463,-0.474247 1.19879,0 8.51474,-3.874536 8.51474,-4.509416 0,-0.330504 0.15443,-0.446483 0.34318,-0.25773 0.18876,0.188752 0.98953,0.01635 1.77949,-0.383103 0.78997,-0.399459 2.42187,-0.89802 3.62645,-1.107913 1.20458,-0.209892 8.82914,-1.96756 16.94345,-3.905927 l 14.75331,-3.524303 16.23746,0 16.23746,0 9.52687,2.218128 c 24.29752,5.657154 28.26586,6.882278 35.69174,11.018916 2.77457,1.545589 5.35265,2.813277 5.72908,2.817082 0.37643,0.0038 0.68442,0.171181 0.68442,0.371944 0,0.200763 0.30799,0.375683 0.68442,0.388711 0.37643,0.01303 2.99543,1.312531 5.82001,2.887786 2.82457,1.575253 5.47926,2.914538 5.89931,2.97619 0.42006,0.06165 1.14131,0.651147 1.60278,1.309987 0.46147,0.65884 1.19466,1.1979 1.6293,1.1979 0.43464,0 0.79025,0.32486 0.79025,0.72192 0,0.74668 -1.58682,6.38635 -1.98042,7.03853 -0.12239,0.2028 -2.49876,-0.85405 -5.28082,-2.34856 -2.78207,-1.49451 -10.18595,-5.30335 -16.45307,-8.464081 l -11.39476,-5.746787 -16.40317,-3.813548 -16.40318,-3.813547 -16.68415,0 -16.68415,0 -16.63977,4.040805 -16.63977,4.040804 -15.17486,7.819924 -15.17486,7.81992 -12.55987,11.06305 -12.55987,11.06306 -9.54439,14.11594 -9.544401,14.11594 -5.207995,15.66058 c -5.851098,17.59442 -5.713879,16.8044 -6.904555,39.75216 -0.343757,6.62518 -0.683657,12.108 -0.755334,12.18405 -0.07168,0.076 -0.585639,-1.85531 -1.14214,-4.29189 z"
     style="opacity:1;fill:#bfb6b6;fill-opacity:1;stroke:#000000;stroke-width:2.16184092;stroke-linecap:round;stroke-linejoin:bevel;stroke-miterlimit:4;stroke-dasharray:none;stroke-dashoffset:0;stroke-opacity:1" />
  <path
     id="path4148"
     d="m 357.68786,253.29258 c 0,-0.23948 1.30046,-6.95364 2.88991,-14.92034 l 2.88991,-14.48491 -1.25744,-16.69984 -1.25745,-16.69984 -5.83397,-16.1523 -5.83397,-16.1523 -4.94136,-7.11796 c -8.12711,-11.70699 -13.51211,-19.0431 -15.54597,-21.17863 l -1.91895,-2.01488 1.26997,-3.59736 c 0.69849,-1.97855 1.42247,-3.59736 1.60885,-3.59736 0.52918,0 3.48864,3.34206 4.96645,5.6085 0.735,1.12723 1.52115,2.0512 1.74701,2.05326 0.22586,0.002 0.41065,0.29824 0.41065,0.6582 0,0.35995 0.59327,1.28392 1.31838,2.05326 1.26332,1.34038 2.01511,2.45953 4.43075,6.59575 0.60229,1.03129 1.77264,2.58193 2.60079,3.44588 0.82815,0.86395 1.50572,1.90747 1.50572,2.31895 0,0.41147 0.45609,1.0701 1.01354,1.4636 0.55744,0.39351 1.40357,1.47259 1.88027,2.39796 0.47671,0.92536 1.25257,2.00269 1.72414,2.39407 0.47158,0.39137 0.85861,1.11259 0.86007,1.60272 0.003,0.92881 3.26042,10.02134 4.66465,13.01968 0.44443,0.94895 0.80805,2.05291 0.80805,2.45325 0,0.7614 3.54966,10.38665 4.49835,12.19771 1.17264,2.23857 3.05996,18.04748 3.14355,26.33147 0.0273,2.7103 0.27574,5.90259 0.552,7.09398 0.3533,1.5237 0.25454,3.55365 -0.33297,6.8442 -0.45939,2.57291 -0.93359,5.5404 -1.05378,6.5944 -0.1202,1.05401 -1.46354,7.46018 -2.98521,14.23593 -1.52167,6.77576 -2.79879,12.62754 -2.83803,13.00397 -0.077,0.73902 -0.98391,0.96851 -0.98391,0.24898 z"
     style="opacity:1;fill:#bfb6b6;fill-opacity:1;stroke:#000000;stroke-width:2.16184092;stroke-linecap:round;stroke-linejoin:bevel;stroke-miterlimit:4;stroke-dasharray:none;stroke-dashoffset:0;stroke-opacity:1" />
  <path
     id="path4150"
     d="m 323.70196,116.67307 c -9.59202,-2.70169 -14.393,-11.38174 -10.69183,-19.330555 2.28919,-4.916381 6.90709,-7.489988 13.46819,-7.505984 4.75935,-0.0116 7.72778,1.095367 11.31323,4.218873 6.01094,5.236487 6.30726,14.440316 0.61968,19.247446 -3.9325,3.32374 -9.96612,4.70618 -14.70927,3.37022 z m 8.52549,-5.98332 c 4.91075,-2.4795 5.82802,-8.03862 2.06442,-12.511408 -3.7339,-4.437493 -11.80799,-4.337025 -15.02939,0.187013 -1.55204,2.179645 -1.93492,6.280335 -0.79263,8.489275 0.96686,1.86971 3.42495,3.82472 5.70409,4.5367 1.69788,0.5304 6.42999,0.11816 8.05351,-0.70158 z"
     style="opacity:1;fill:#bfb6b6;fill-opacity:1;stroke:#000000;stroke-width:2.16184092;stroke-linecap:round;stroke-linejoin:bevel;stroke-miterlimit:4;stroke-dasharray:none;stroke-dashoffset:0;stroke-opacity:1" />
  <path
     id="path4152"
     d="m 317.3132,125.30503 c -5.90572,-2.9541 -9.74327,-9.63765 -8.29989,-14.45523 0.36561,-1.2203 0.83531,-2.21873 1.04377,-2.21873 0.20846,0 1.13423,1.21488 2.05726,2.69972 0.92303,1.48485 2.48776,3.11834 3.47717,3.62999 0.98941,0.51164 2.1572,1.28853 2.59509,1.72642 0.98128,0.98128 2.80063,1.69028 6.21822,2.42322 1.44157,0.30916 2.60194,0.84968 2.5786,1.20116 -0.0233,0.35147 -0.47451,1.871 -1.00261,3.37672 -0.94052,2.68161 -1.00974,2.7409 -3.37967,2.89463 -1.74736,0.11334 -3.21632,-0.24165 -5.28794,-1.2779 z"
     style="opacity:1;fill:#bfb6b6;fill-opacity:1;stroke:#000000;stroke-width:2.16184092;stroke-linecap:round;stroke-linejoin:bevel;stroke-miterlimit:4;stroke-dasharray:none;stroke-dashoffset:0;stroke-opacity:1" />
  <path
     id="path4154"
     d="m 105.99898,324.01105 c -3.28873,-1.16533 -6.987447,-4.66315 -8.770468,-8.29408 -2.187323,-4.45427 -2.149176,-9.98226 0.100147,-14.51239 1.7218,-3.46771 4.998721,-6.81898 8.328961,-8.51794 4.91215,-2.50599 11.93846,-2.4028 16.45246,0.24162 2.4145,1.41448 6.19928,5.92849 7.21731,8.60789 0.85561,2.25194 0.71537,7.95242 -0.27793,11.29723 -1.21304,4.08473 -6.35729,9.28632 -10.79211,10.91238 -3.72295,1.36506 -8.84201,1.47584 -12.25837,0.26529 z m 11.18051,-7.14881 c 3.86927,-1.82284 6.65754,-6.94227 5.92059,-10.87056 -0.47955,-2.5562 -2.47724,-5.24448 -4.97526,-6.69517 -1.77366,-1.03002 -2.80033,-1.22866 -5.57569,-1.07876 -2.82371,0.15251 -3.75409,0.46852 -5.47536,1.85974 -2.97037,2.4008 -4.14643,4.68894 -4.14643,8.06726 0,4.92125 2.41349,8.18566 7.14521,9.66438 1.81688,0.5678 4.70995,0.18234 7.10694,-0.94689 z"
     style="opacity:1;fill:#bfb6b6;fill-opacity:1;stroke:#000000;stroke-width:2.16184092;stroke-linecap:round;stroke-linejoin:bevel;stroke-miterlimit:4;stroke-dasharray:none;stroke-dashoffset:0;stroke-opacity:1" />
  <path
     id="path4162"
     d="m 328.98094,106.85394 c -1.13539,-0.84588 -2.61482,-1.25929 -5.0647,-1.41528 l -3.46081,-0.22037 0,-2.29688 c 0,-4.924773 4.95095,-7.147961 10.562,-4.742787 2.26064,0.969024 2.46727,1.229367 2.81473,3.546397 0.27415,1.82814 0.12883,3.01933 -0.54037,4.42956 -1.05384,2.22082 -2.0514,2.38265 -4.31085,0.69936 z"
     style="opacity:1;fill:#bfb6b6;fill-opacity:1;stroke:#000000;stroke-width:2.16184092;stroke-linecap:round;stroke-linejoin:bevel;stroke-miterlimit:4;stroke-dasharray:none;stroke-dashoffset:0;stroke-opacity:1" />
  <path
     id="path4164"
     d="m 105.01751,310.7745 c -0.32563,-1.92743 0.99037,-6.81626 2.31219,-8.58957 1.38459,-1.85752 5.74278,-2.50165 8.7224,-1.28915 l 1.54137,0.62723 -2.73768,0.79949 c -4.84259,1.41421 -7.39102,4.04875 -8.22703,8.50504 -0.49096,2.61707 -1.16388,2.59492 -1.61125,-0.053 z"
     style="opacity:1;fill:#bfb6b6;fill-opacity:1;stroke:#000000;stroke-width:1.17462242;stroke-linecap:round;stroke-linejoin:bevel;stroke-miterlimit:4;stroke-dasharray:none;stroke-dashoffset:0;stroke-opacity:1" />
</svg>
